<svg width="27" height="26" viewBox="0 0 27 26" fill="none" xmlns="http://www.w3.org/2000/svg">
<path d="M0 26H27V0H0V26ZM2.45455 23.6364V7.09091H24.5455V23.6364H2.45455ZM4.90909 21.2727H7.36364V18.9091H4.90909V21.2727ZM4.90909 16.5455H7.36364V14.1818H4.90909V16.5455ZM9.81818 21.2727H12.2727V18.9091H9.81818V21.2727ZM9.81818 16.5455H12.2727V14.1818H9.81818V16.5455ZM14.7273 21.2727H17.1818V18.9091H14.7273V21.2727ZM4.90909 11.8182H7.36364V9.45455H4.90909V11.8182ZM14.7273 16.5455H17.1818V14.1818H14.7273V16.5455ZM9.81818 11.8182H12.2727V9.45455H9.81818V11.8182ZM19.6364 16.5455H22.0909V14.1818H19.6364V16.5455ZM14.7273 11.8182H17.1818V9.45455H14.7273V11.8182ZM19.6364 11.8182H22.0909V9.45455H19.6364V11.8182Z" fill="#EFE6D7"/>
</svg>
