<svg width="42" height="42" viewBox="0 0 42 42" fill="none" xmlns="http://www.w3.org/2000/svg">
<path d="M20.9825 0C32.5711 0 41.9649 9.39384 41.9649 20.9824C41.9649 32.571 32.5711 41.9649 20.9825 41.9649C17.2744 41.9713 13.6314 40.9899 10.4283 39.1218L0.00842541 41.9649L2.84525 31.5408C0.975629 28.3366 -0.006466 24.6922 3.20374e-05 20.9824C3.20374e-05 9.39384 9.39387 0 20.9825 0ZM13.8317 11.1207L13.412 11.1375C13.1407 11.1562 12.8756 11.2274 12.6315 11.3473C12.404 11.4764 12.1962 11.6375 12.0146 11.8257C11.7628 12.0628 11.6201 12.2684 11.4669 12.4678C10.6908 13.4768 10.273 14.7156 10.2793 15.9886C10.2835 17.0168 10.5521 18.0176 10.9718 18.9534C11.8299 20.8461 13.242 22.8499 15.1053 24.7068C15.5543 25.1537 15.9949 25.6028 16.4692 26.0203C18.7844 28.0586 21.5433 29.5285 24.5264 30.3133L25.7182 30.4959C26.1064 30.5169 26.4946 30.4875 26.8848 30.4686C27.4958 30.4364 28.0924 30.271 28.6327 29.9839C28.9072 29.8419 29.1754 29.6879 29.4363 29.5223C29.4363 29.5223 29.5251 29.4621 29.6986 29.3335C29.9818 29.1236 30.156 28.9747 30.391 28.7292C30.5673 28.5473 30.7141 28.3361 30.8316 28.0955C30.9953 27.7535 31.159 27.1009 31.2261 26.5575C31.2765 26.142 31.2618 25.9154 31.2555 25.7748C31.2471 25.5503 31.0603 25.3174 30.8568 25.2188L29.6356 24.6712C29.6356 24.6712 27.8102 23.8759 26.6939 23.3681C26.577 23.3173 26.4519 23.2881 26.3246 23.2821C26.181 23.2671 26.0359 23.2831 25.8991 23.3291C25.7622 23.3751 25.6368 23.4499 25.5315 23.5486C25.521 23.5444 25.3804 23.664 23.8634 25.5021C23.7763 25.6191 23.6564 25.7075 23.5188 25.7561C23.3813 25.8046 23.2325 25.8112 23.0912 25.7748C22.9545 25.7384 22.8205 25.6921 22.6904 25.6363C22.4303 25.5272 22.34 25.4853 22.1617 25.4097C20.957 24.885 19.842 24.1749 18.857 23.3052C18.5926 23.0744 18.3471 22.8226 18.0953 22.5792C17.2699 21.7886 16.5505 20.8943 15.9551 19.9186L15.8313 19.7193C15.7437 19.5846 15.6719 19.4403 15.6173 19.2892C15.5375 18.9807 15.7453 18.7331 15.7453 18.7331C15.7453 18.7331 16.2551 18.175 16.4922 17.8728C16.723 17.5791 16.9182 17.2937 17.0441 17.0902C17.2917 16.6915 17.3693 16.2824 17.2392 15.9655C16.6517 14.5303 16.0446 13.1028 15.4179 11.683C15.2941 11.4019 14.9269 11.2004 14.5933 11.1606C14.48 11.1466 14.3667 11.1354 14.2534 11.127C13.9717 11.1108 13.6892 11.1136 13.4078 11.1354L13.8317 11.1207Z" fill="#777C5C"/>
</svg>
