<svg width="41" height="42" viewBox="0 0 41 42" fill="none" xmlns="http://www.w3.org/2000/svg">
<path d="M20.383 0C9.13157 0 0 9.26585 0 20.6827C0 32.0996 9.13157 41.3654 20.383 41.3654C31.6343 41.3654 40.7659 32.0996 40.7659 20.6827C40.7659 9.26585 31.6343 0 20.383 0ZM29.8406 14.0642C29.5349 17.3321 28.21 25.2743 27.5374 28.9351C27.252 30.4863 26.6813 31.0034 26.1513 31.0654C24.9691 31.1688 24.0723 30.2795 22.9308 29.5142C21.1371 28.3146 20.118 27.57 18.3854 26.4118C16.3675 25.0674 17.672 24.3229 18.8339 23.1233C19.1396 22.813 24.3576 17.994 24.4595 17.5596C24.4737 17.4938 24.4718 17.4255 24.4541 17.3607C24.4363 17.2958 24.4032 17.2363 24.3576 17.1873C24.2353 17.0839 24.0723 17.1253 23.9296 17.146C23.7461 17.1873 20.8925 19.1108 15.328 22.9164C14.5127 23.4749 13.7789 23.7644 13.1266 23.7437C12.3928 23.7231 11.0068 23.3301 9.96727 22.9785C8.68314 22.5648 7.68437 22.3373 7.76591 21.6134C7.80667 21.2411 8.31625 20.8689 9.27425 20.4759C15.2261 17.8492 19.1804 16.1118 21.1575 15.2845C26.824 12.8853 27.9858 12.4717 28.7604 12.4717C28.9234 12.4717 29.3107 12.513 29.5553 12.7199C29.8866 12.9888 29.8518 13.4946 29.8462 13.9213C29.8456 13.9702 29.8439 14.0183 29.8406 14.0642Z" fill="#777C5C"/>
</svg>
