<svg width="42" height="40" viewBox="0 0 42 40" fill="none" xmlns="http://www.w3.org/2000/svg">
<path d="M27.0385 0H14.3497C2.75494 0 0 2.63714 0 13.704V25.8431C0 36.9298 2.73632 39.5669 14.3269 39.5669H27.0178C38.6084 39.5669 41.3654 36.9496 41.3654 25.8629V13.7258C41.3654 2.63516 38.6291 0 27.0385 0ZM33.3943 28.231H30.3767C29.235 28.231 28.8917 27.3467 26.8441 25.3881C25.0571 23.7402 24.3022 23.5344 23.8492 23.5344C23.2246 23.5344 23.0529 23.6986 23.0529 24.5236V27.1192C23.0529 27.8215 22.8151 28.233 20.8978 28.233C19.0374 28.1121 17.2335 27.5708 15.6343 26.6536C14.035 25.7364 12.6861 24.4694 11.6981 22.9567C9.35345 20.1683 7.72298 16.894 6.93698 13.3954C6.93698 12.9621 7.10865 12.5704 7.97112 12.5704H10.9887C11.7643 12.5704 12.0435 12.9008 12.3455 13.6625C13.8098 17.7853 16.3083 21.3701 17.3218 21.3701C17.7106 21.3701 17.8802 21.2059 17.8802 20.278V16.0325C17.752 14.0957 16.6765 13.9315 16.6765 13.2312C16.6903 13.0465 16.7788 12.8741 16.9232 12.7508C17.0676 12.6274 17.2566 12.5627 17.45 12.5704H22.1905C22.8378 12.5704 23.0529 12.879 23.0529 13.6209V19.3502C23.0529 19.9694 23.3322 20.1752 23.5266 20.1752C23.9154 20.1752 24.2153 19.9694 24.9268 19.2889C26.4549 17.5063 27.7035 15.5203 28.6331 13.3934C28.7287 13.1383 28.9087 12.92 29.1457 12.7714C29.3827 12.6229 29.6638 12.5524 29.9465 12.5704H32.9641C33.8679 12.5704 34.0603 13.0037 33.8679 13.6209C32.7708 15.9721 31.4131 18.2039 29.8183 20.278C29.4935 20.7528 29.3632 21.0001 29.8183 21.5561C30.1182 21.9893 31.175 22.8341 31.8865 23.6373C32.9201 24.6241 33.7786 25.7654 34.4284 27.0163C34.687 27.8195 34.2547 28.231 33.3943 28.231Z" fill="#777C5C"/>
</svg>
